<svg width="111" height="79" viewBox="0 0 111 79" fill="none" xmlns="http://www.w3.org/2000/svg">
<g clip-path="url(#clip0_3_29)">
<path d="M90.4 0.217316C97.2328 6.03479 104.066 11.8568 110.865 17.7128C104.157 23.7138 97.183 29.4498 90.3704 35.3463C90.3863 31.4008 90.3454 27.4574 90.3843 23.5142C86.0626 23.521 81.7408 23.4895 77.4214 23.528C75.3447 23.5325 73.3908 24.5647 71.992 26.0542C59.5841 38.9067 47.1511 51.7371 34.7478 64.5944C33.3694 66.0182 31.4474 66.9485 29.4389 66.9304C21.5486 66.9802 13.6555 66.892 5.76749 66.9823C2.83531 66.8963 0.319848 64.2524 0.322123 61.3482C0.176549 58.1995 2.96519 55.4854 6.07228 55.3924C12.3388 55.3335 18.6121 55.4263 24.8786 55.3496C27.1646 55.3358 29.1776 54.0095 30.6197 52.3345C42.8388 39.672 55.0715 27.0205 67.2974 14.3624C68.6713 12.8707 70.6456 11.9516 72.6836 11.9064C78.5837 11.8815 84.4865 11.929 90.3845 11.8835C90.3725 7.99508 90.3408 4.10643 90.4 0.217316Z" fill="#B0435D"/>
<path d="M4.72292 11.8794C13.2526 11.809 21.8121 11.8862 30.3553 11.8613C32.5571 11.764 34.7998 12.5857 36.2965 14.2223C39.8469 17.8578 43.3591 21.5362 46.8893 25.1917C48.3357 26.6631 49.1297 28.8044 48.6271 30.8462C48.0789 33.3452 45.6746 35.3325 43.0862 35.3078C41.3281 35.387 39.7084 34.4952 38.4142 33.3883C35.994 30.8213 33.6739 28.1548 31.2153 25.6218C29.8073 24.1957 27.7829 23.4917 25.795 23.5189C19.4284 23.4917 13.0618 23.537 6.69499 23.4985C4.16109 23.4216 1.45888 22.2307 0.524027 19.7274C-0.915788 16.5402 1.28601 12.4929 4.72292 11.8794Z" fill="#8C8C8C"/>
<path d="M56.7633 44.4053C58.9628 42.6557 62.4111 42.9092 64.3513 44.9304C67.0101 47.6422 69.6124 50.4106 72.2737 53.1202C73.6567 54.5711 75.6492 55.3996 77.6577 55.3792C81.9021 55.3634 86.1462 55.3973 90.3931 55.3589C90.3499 51.4858 90.3772 47.6126 90.384 43.7398C97.2692 49.5436 104.102 55.4087 110.924 61.2873C104.111 67.1613 97.2621 72.9924 90.402 78.8099C90.3155 74.8486 90.4111 70.885 90.359 66.9237C84.4519 66.8693 78.5448 66.9189 72.6376 66.8988C70.6019 66.8806 68.6412 65.9141 67.2787 64.4292C63.4733 60.5199 59.6065 56.6718 55.8398 52.7288C53.6585 50.3588 54.143 46.2592 56.7633 44.4053Z" fill="#8C8C8C"/>
</g>
<defs>
<clipPath id="clip0_3_29">
<rect width="111" height="79" rx="5" fill="white"/>
</clipPath>
</defs>
</svg>
