<svg width="299" height="105" viewBox="0 0 299 105" fill="none" xmlns="http://www.w3.org/2000/svg">
<g clip-path="url(#clip0_10_10)">
<g filter="url(#filter0_d_10_10)">
<path d="M8.08313 96V57.12H18.7871C21.4111 57.12 23.6831 57.408 25.6031 57.984C27.5231 58.56 29.0111 59.6 30.0671 61.104C31.1551 62.576 31.6991 64.672 31.6991 67.392C31.6991 68.992 31.5711 70.416 31.3151 71.664C31.0591 72.912 30.5791 74 29.8751 74.928C29.2031 75.824 28.2271 76.576 26.9471 77.184L32.2751 96H23.3951L19.1231 78.576H16.6751V96H8.08313ZM16.6751 73.632H19.0751C20.2911 73.632 21.2351 73.424 21.9071 73.008C22.5791 72.56 23.0431 71.936 23.2991 71.136C23.5871 70.304 23.7311 69.312 23.7311 68.16C23.7311 66.496 23.4271 65.2 22.8191 64.272C22.2111 63.344 21.0911 62.88 19.4591 62.88H16.6751V73.632ZM34.9924 96L42.3364 57.12H52.1284L59.3764 96H51.4564L50.1604 87.792H44.4484L43.1044 96H34.9924ZM45.2164 82.656H49.3444L47.2804 67.488L45.2164 82.656ZM63.3019 96V57.12H69.3499L77.3179 75.84V57.12H84.4219V96H78.6139L70.6459 75.84V96H63.3019ZM90.2081 96V57.12H100.048C103.44 57.12 106.08 57.552 107.968 58.416C109.856 59.248 111.184 60.576 111.952 62.4C112.72 64.192 113.104 66.528 113.104 69.408V83.52C113.104 86.432 112.72 88.816 111.952 90.672C111.184 92.496 109.856 93.84 107.968 94.704C106.112 95.568 103.504 96 100.144 96H90.2081ZM98.8001 90.048H100.144C101.456 90.048 102.4 89.856 102.976 89.472C103.552 89.088 103.904 88.512 104.032 87.744C104.192 86.976 104.272 86.016 104.272 84.864V67.92C104.272 66.768 104.176 65.84 103.984 65.136C103.824 64.432 103.456 63.92 102.88 63.6C102.304 63.28 101.376 63.12 100.096 63.12H98.8001V90.048ZM129.469 96.576C126.557 96.576 124.253 96.064 122.557 95.04C120.861 94.016 119.645 92.544 118.909 90.624C118.173 88.704 117.805 86.416 117.805 83.76V69.312C117.805 66.624 118.173 64.336 118.909 62.448C119.645 60.56 120.861 59.12 122.557 58.128C124.253 57.104 126.557 56.592 129.469 56.592C132.413 56.592 134.733 57.104 136.429 58.128C138.157 59.12 139.389 60.56 140.125 62.448C140.861 64.336 141.229 66.624 141.229 69.312V83.76C141.229 86.416 140.861 88.704 140.125 90.624C139.389 92.544 138.157 94.016 136.429 95.04C134.733 96.064 132.413 96.576 129.469 96.576ZM129.469 90.48C130.365 90.48 131.021 90.256 131.437 89.808C131.853 89.36 132.125 88.784 132.253 88.08C132.381 87.376 132.445 86.656 132.445 85.92V67.2C132.445 66.432 132.381 65.712 132.253 65.04C132.125 64.336 131.853 63.76 131.437 63.312C131.021 62.864 130.365 62.64 129.469 62.64C128.637 62.64 128.013 62.864 127.597 63.312C127.181 63.76 126.909 64.336 126.781 65.04C126.653 65.712 126.589 66.432 126.589 67.2V85.92C126.589 86.656 126.637 87.376 126.733 88.08C126.861 88.784 127.117 89.36 127.501 89.808C127.917 90.256 128.573 90.48 129.469 90.48ZM146.314 96L146.986 57.12H156.202L160.474 79.728L165.082 57.12H173.962L174.634 96H168.538L167.818 70.128L163.306 96H157.882L153.082 69.936L152.506 96H146.314ZM180.255 96V57.12H197.055V62.928H188.847V72.72H195.999V78.72H188.847V96H180.255ZM201.116 96V57.12H209.708V96H201.116ZM215.505 96V57.12H224.097V90.192H233.025V96H215.505ZM236.642 96L237.314 57.12H246.53L250.802 79.728L255.41 57.12H264.29L264.962 96H258.866L258.146 70.128L253.634 96H248.21L243.41 69.936L242.834 96H236.642ZM280.341 96.576C277.909 96.576 275.877 96.144 274.245 95.28C272.613 94.416 271.381 93.088 270.549 91.296C269.717 89.472 269.253 87.12 269.157 84.24L276.501 83.136C276.533 84.8 276.677 86.144 276.933 87.168C277.221 88.192 277.605 88.928 278.085 89.376C278.597 89.824 279.205 90.048 279.909 90.048C280.805 90.048 281.381 89.744 281.637 89.136C281.925 88.528 282.069 87.888 282.069 87.216C282.069 85.616 281.685 84.272 280.917 83.184C280.149 82.064 279.109 80.944 277.797 79.824L274.437 76.896C272.965 75.648 271.717 74.24 270.693 72.672C269.701 71.072 269.205 69.104 269.205 66.768C269.205 63.472 270.181 60.96 272.133 59.232C274.085 57.472 276.741 56.592 280.101 56.592C282.181 56.592 283.845 56.944 285.093 57.648C286.373 58.352 287.333 59.28 287.973 60.432C288.645 61.552 289.093 62.752 289.317 64.032C289.573 65.28 289.717 66.48 289.749 67.632L282.357 68.544C282.325 67.392 282.245 66.4 282.117 65.568C282.021 64.704 281.797 64.048 281.445 63.6C281.093 63.12 280.549 62.88 279.813 62.88C279.013 62.88 278.421 63.216 278.037 63.888C277.685 64.56 277.509 65.232 277.509 65.904C277.509 67.344 277.845 68.528 278.517 69.456C279.221 70.352 280.133 71.296 281.253 72.288L284.469 75.12C286.165 76.56 287.589 78.192 288.741 80.016C289.925 81.84 290.517 84.096 290.517 86.784C290.517 88.608 290.101 90.272 289.269 91.776C288.437 93.248 287.253 94.416 285.717 95.28C284.213 96.144 282.421 96.576 280.341 96.576Z" fill="#B0435D"/>
<path d="M8.08313 96H7.08313V97H8.08313V96ZM8.08313 57.12V56.12H7.08313V57.12H8.08313ZM30.0671 61.104L29.2487 61.6786L29.2557 61.6886L29.2629 61.6984L30.0671 61.104ZM31.3151 71.664L30.3355 71.4631L30.3355 71.4631L31.3151 71.664ZM29.8751 74.928L29.0784 74.3236L29.0751 74.328L29.8751 74.928ZM26.9471 77.184L26.5181 76.2807L25.7547 76.6433L25.985 77.4565L26.9471 77.184ZM32.2751 96V97H33.5976L33.2373 95.7275L32.2751 96ZM23.3951 96L22.4239 96.2381L22.6107 97H23.3951V96ZM19.1231 78.576L20.0944 78.3379L19.9076 77.576H19.1231V78.576ZM16.6751 78.576V77.576H15.6751V78.576H16.6751ZM16.6751 96V97H17.6751V96H16.6751ZM16.6751 73.632H15.6751V74.632H16.6751V73.632ZM21.9071 73.008L22.4335 73.8583L22.4478 73.8494L22.4618 73.84L21.9071 73.008ZM23.2991 71.136L22.3541 70.8089L22.3503 70.82L22.3467 70.8312L23.2991 71.136ZM22.8191 64.272L21.9827 64.82L21.9827 64.82L22.8191 64.272ZM16.6751 62.88V61.88H15.6751V62.88H16.6751ZM9.08313 96V57.12H7.08313V96H9.08313ZM8.08313 58.12H18.7871V56.12H8.08313V58.12ZM18.7871 58.12C21.342 58.12 23.5127 58.4009 25.3158 58.9418L25.8905 57.0262C23.8536 56.4151 21.4802 56.12 18.7871 56.12V58.12ZM25.3158 58.9418C27.0415 59.4596 28.3336 60.3753 29.2487 61.6786L30.8855 60.5294C29.6886 58.8246 28.0047 57.6604 25.8905 57.0262L25.3158 58.9418ZM29.2629 61.6984C30.1754 62.9328 30.6991 64.7869 30.6991 67.392H32.6991C32.6991 64.5571 32.1349 62.2192 30.8713 60.5096L29.2629 61.6984ZM30.6991 67.392C30.6991 68.9408 30.575 70.2954 30.3355 71.4631L32.2947 71.8649C32.5672 70.5366 32.6991 69.0432 32.6991 67.392H30.6991ZM30.3355 71.4631C30.1067 72.5785 29.6839 73.5256 29.0784 74.3236L30.6718 75.5324C31.4744 74.4744 32.0115 73.2455 32.2947 71.8649L30.3355 71.4631ZM29.0751 74.328C28.5228 75.0645 27.6896 75.7242 26.5181 76.2807L27.3762 78.0873C28.7647 77.4278 29.8835 76.5835 30.6751 75.528L29.0751 74.328ZM25.985 77.4565L31.313 96.2725L33.2373 95.7275L27.9093 76.9115L25.985 77.4565ZM32.2751 95H23.3951V97H32.2751V95ZM24.3664 95.7619L20.0944 78.3379L18.1519 78.8141L22.4239 96.2381L24.3664 95.7619ZM19.1231 77.576H16.6751V79.576H19.1231V77.576ZM15.6751 78.576V96H17.6751V78.576H15.6751ZM16.6751 95H8.08313V97H16.6751V95ZM16.6751 74.632H19.0751V72.632H16.6751V74.632ZM19.0751 74.632C20.3847 74.632 21.5399 74.4114 22.4335 73.8583L21.3808 72.1577C20.9304 72.4366 20.1975 72.632 19.0751 72.632V74.632ZM22.4618 73.84C23.3303 73.2611 23.9295 72.4472 24.2515 71.4408L22.3467 70.8312C22.1568 71.4248 21.828 71.8589 21.3524 72.1759L22.4618 73.84ZM24.2441 71.4631C24.5778 70.4991 24.7311 69.3909 24.7311 68.16H22.7311C22.7311 69.2331 22.5964 70.1089 22.3541 70.8089L24.2441 71.4631ZM24.7311 68.16C24.7311 66.3925 24.4112 64.8772 23.6556 63.724L21.9827 64.82C22.4431 65.5228 22.7311 66.5995 22.7311 68.16H24.7311ZM23.6556 63.724C22.7858 62.3964 21.2583 61.88 19.4591 61.88V63.88C20.924 63.88 21.6365 64.2916 21.9827 64.82L23.6556 63.724ZM19.4591 61.88H16.6751V63.88H19.4591V61.88ZM15.6751 62.88V73.632H17.6751V62.88H15.6751ZM34.9924 96L34.0098 95.8144L33.7858 97H34.9924V96ZM42.3364 57.12V56.12H41.5076L41.3538 56.9344L42.3364 57.12ZM52.1284 57.12L53.1114 56.9367L52.9592 56.12H52.1284V57.12ZM59.3764 96V97H60.58L60.3594 95.8167L59.3764 96ZM51.4564 96L50.4686 96.156L50.6019 97H51.4564V96ZM50.1604 87.792L51.1481 87.636L51.0149 86.792H50.1604V87.792ZM44.4484 87.792V86.792H43.5988L43.4615 87.6304L44.4484 87.792ZM43.1044 96V97H43.954L44.0912 96.1616L43.1044 96ZM45.2164 82.656L44.2255 82.5212L44.0711 83.656H45.2164V82.656ZM49.3444 82.656V83.656H50.4897L50.3352 82.5212L49.3444 82.656ZM47.2804 67.488L48.2712 67.3532L46.2895 67.3532L47.2804 67.488ZM35.975 96.1856L43.319 57.3056L41.3538 56.9344L34.0098 95.8144L35.975 96.1856ZM42.3364 58.12H52.1284V56.12H42.3364V58.12ZM51.1453 57.3033L58.3933 96.1833L60.3594 95.8167L53.1114 56.9367L51.1453 57.3033ZM59.3764 95H51.4564V97H59.3764V95ZM52.4441 95.844L51.1481 87.636L49.1726 87.948L50.4686 96.156L52.4441 95.844ZM50.1604 86.792H44.4484V88.792H50.1604V86.792ZM43.4615 87.6304L42.1175 95.8384L44.0912 96.1616L45.4352 87.9536L43.4615 87.6304ZM43.1044 95H34.9924V97H43.1044V95ZM45.2164 83.656H49.3444V81.656H45.2164V83.656ZM50.3352 82.5212L48.2712 67.3532L46.2895 67.6228L48.3535 82.7908L50.3352 82.5212ZM46.2895 67.3532L44.2255 82.5212L46.2072 82.7908L48.2712 67.6228L46.2895 67.3532ZM63.3019 96H62.3019V97H63.3019V96ZM63.3019 57.12V56.12H62.3019V57.12H63.3019ZM69.3499 57.12L70.27 56.7284L70.0111 56.12H69.3499V57.12ZM77.3179 75.84L76.3978 76.2316L78.3179 75.84H77.3179ZM77.3179 57.12V56.12H76.3179V57.12H77.3179ZM84.4219 57.12H85.4219V56.12H84.4219V57.12ZM84.4219 96V97H85.4219V96H84.4219ZM78.6139 96L77.6839 96.3676L77.9338 97H78.6139V96ZM70.6459 75.84L71.5759 75.4724L69.6459 75.84H70.6459ZM70.6459 96V97H71.6459V96H70.6459ZM64.3019 96V57.12H62.3019V96H64.3019ZM63.3019 58.12H69.3499V56.12H63.3019V58.12ZM68.4298 57.5116L76.3978 76.2316L78.238 75.4484L70.27 56.7284L68.4298 57.5116ZM78.3179 75.84V57.12H76.3179V75.84H78.3179ZM77.3179 58.12H84.4219V56.12H77.3179V58.12ZM83.4219 57.12V96H85.4219V57.12H83.4219ZM84.4219 95H78.6139V97H84.4219V95ZM79.5439 95.6324L71.5759 75.4724L69.7159 76.2076L77.6839 96.3676L79.5439 95.6324ZM69.6459 75.84V96H71.6459V75.84H69.6459ZM70.6459 95H63.3019V97H70.6459V95ZM90.2081 96H89.2081V97H90.2081V96ZM90.2081 57.12V56.12H89.2081V57.12H90.2081ZM107.968 58.416L107.552 59.3254L107.565 59.3311L107.968 58.416ZM111.952 62.4L111.03 62.7881L111.033 62.7939L111.952 62.4ZM111.952 90.672L112.874 91.0601L112.876 91.0544L111.952 90.672ZM107.968 94.704L107.552 93.7947L107.546 93.7974L107.968 94.704ZM98.8001 90.048H97.8001V91.048H98.8001V90.048ZM102.976 89.472L102.421 88.6399L102.421 88.6399L102.976 89.472ZM104.032 87.744L103.053 87.54L103.049 87.5597L103.046 87.5796L104.032 87.744ZM103.984 65.136L103.009 65.3576L103.014 65.3785L103.019 65.3991L103.984 65.136ZM102.88 63.6L102.394 64.4742L102.394 64.4742L102.88 63.6ZM98.8001 63.12V62.12H97.8001V63.12H98.8001ZM91.2081 96V57.12H89.2081V96H91.2081ZM90.2081 58.12H100.048V56.12H90.2081V58.12ZM100.048 58.12C103.377 58.12 105.852 58.5472 107.552 59.3253L108.384 57.5067C106.308 56.5568 103.504 56.12 100.048 56.12V58.12ZM107.565 59.3311C109.23 60.0649 110.366 61.2103 111.03 62.7881L112.874 62.0119C112.002 59.9417 110.482 58.4311 108.371 57.5009L107.565 59.3311ZM111.033 62.7939C111.728 64.4168 112.104 66.6045 112.104 69.408H114.104C114.104 66.4515 113.712 63.9672 112.871 62.0061L111.033 62.7939ZM112.104 69.408V83.52H114.104V69.408H112.104ZM112.104 83.52C112.104 86.3549 111.729 88.5965 111.028 90.2896L112.876 91.0544C113.712 89.0355 114.104 86.5091 114.104 83.52H112.104ZM111.03 90.2839C110.365 91.8648 109.224 93.0293 107.552 93.7947L108.384 95.6133C110.488 94.6507 112.003 93.1272 112.874 91.0601L111.03 90.2839ZM107.546 93.7974C105.881 94.5727 103.44 95 100.144 95V97C103.568 97 106.344 96.5633 108.39 95.6106L107.546 93.7974ZM100.144 95H90.2081V97H100.144V95ZM98.8001 91.048H100.144V89.048H98.8001V91.048ZM100.144 91.048C101.504 91.048 102.699 90.8585 103.531 90.304L102.421 88.6399C102.101 88.8535 101.409 89.048 100.144 89.048V91.048ZM103.531 90.3041C104.367 89.7468 104.851 88.9115 105.019 87.9084L103.046 87.5796C102.957 88.1125 102.738 88.4292 102.421 88.6399L103.531 90.3041ZM105.011 87.948C105.19 87.0896 105.272 86.0558 105.272 84.864H103.272C103.272 85.9762 103.194 86.8624 103.053 87.54L105.011 87.948ZM105.272 84.864V67.92H103.272V84.864H105.272ZM105.272 67.92C105.272 66.7241 105.174 65.6972 104.949 64.8729L103.019 65.3991C103.179 65.9828 103.272 66.8119 103.272 67.92H105.272ZM104.959 64.9144C104.743 63.9629 104.216 63.198 103.366 62.7258L102.394 64.4742C102.697 64.642 102.905 64.9011 103.009 65.3576L104.959 64.9144ZM103.366 62.7258C102.558 62.2768 101.414 62.12 100.096 62.12V64.12C101.338 64.12 102.051 64.2832 102.394 64.4742L103.366 62.7258ZM100.096 62.12H98.8001V64.12H100.096V62.12ZM97.8001 63.12V90.048H99.8001V63.12H97.8001ZM122.557 95.04L122.04 95.8961L122.04 95.8961L122.557 95.04ZM118.909 62.448L117.977 62.0848L117.977 62.0848L118.909 62.448ZM122.557 58.128L123.062 58.9913L123.074 58.9841L122.557 58.128ZM136.429 58.128L135.912 58.9841L135.922 58.9898L135.931 58.9953L136.429 58.128ZM140.125 62.448L139.193 62.8112L139.193 62.8112L140.125 62.448ZM140.125 90.624L139.191 90.2661L139.191 90.2661L140.125 90.624ZM136.429 95.04L135.919 94.1797L135.912 94.1839L136.429 95.04ZM131.437 89.808L130.704 89.1275L130.704 89.1275L131.437 89.808ZM132.253 88.08L133.237 88.2589L133.237 88.2589L132.253 88.08ZM132.253 65.04L131.269 65.2189L131.271 65.2271L132.253 65.04ZM131.437 63.312L130.704 63.9924L130.704 63.9924L131.437 63.312ZM127.597 63.312L128.33 63.9924L128.33 63.9924L127.597 63.312ZM126.781 65.04L127.763 65.2271L127.765 65.2189L126.781 65.04ZM126.733 88.08L125.742 88.2151L125.745 88.2371L125.749 88.2589L126.733 88.08ZM127.501 89.808L126.742 90.4588L126.755 90.4739L126.768 90.4885L127.501 89.808ZM129.469 95.576C126.659 95.576 124.557 95.0795 123.074 94.1839L122.04 95.8961C123.949 97.0485 126.455 97.576 129.469 97.576V95.576ZM123.074 94.1839C121.576 93.2796 120.502 91.9867 119.843 90.2661L117.975 90.9819C118.788 93.1013 120.146 94.7524 122.04 95.8961L123.074 94.1839ZM119.843 90.2661C119.161 88.4882 118.805 86.3276 118.805 83.76H116.805C116.805 86.5044 117.185 88.9198 117.975 90.9819L119.843 90.2661ZM118.805 83.76V69.312H116.805V83.76H118.805ZM118.805 69.312C118.805 66.71 119.162 64.5524 119.841 62.8112L117.977 62.0848C117.184 64.1196 116.805 66.538 116.805 69.312H118.805ZM119.841 62.8112C120.498 61.1261 121.567 59.8656 123.062 58.9912L122.052 57.2648C120.155 58.3744 118.793 59.9939 117.977 62.0848L119.841 62.8112ZM123.074 58.9841C124.557 58.0885 126.659 57.592 129.469 57.592V55.592C126.455 55.592 123.949 56.1195 122.04 57.2719L123.074 58.9841ZM129.469 57.592C132.314 57.592 134.43 58.0893 135.912 58.9841L136.946 57.2719C135.036 56.1187 132.513 55.592 129.469 55.592V57.592ZM135.931 58.9953C137.458 59.8716 138.539 61.1319 139.193 62.8112L141.057 62.0848C140.239 59.9881 138.857 58.3684 136.927 57.2607L135.931 58.9953ZM139.193 62.8112C139.872 64.5524 140.229 66.71 140.229 69.312H142.229C142.229 66.538 141.85 64.1196 141.057 62.0848L139.193 62.8112ZM140.229 69.312V83.76H142.229V69.312H140.229ZM140.229 83.76C140.229 86.3276 139.873 88.4882 139.191 90.2661L141.059 90.9819C141.849 88.9198 142.229 86.5044 142.229 83.76H140.229ZM139.191 90.2661C138.534 91.981 137.449 93.2735 135.919 94.1797L136.939 95.9003C138.866 94.7585 140.244 93.107 141.059 90.9819L139.191 90.2661ZM135.912 94.1839C134.43 95.0787 132.314 95.576 129.469 95.576V97.576C132.513 97.576 135.036 97.0493 136.946 95.8961L135.912 94.1839ZM129.469 91.48C130.513 91.48 131.491 91.2194 132.17 90.4885L130.704 89.1275C130.551 89.2926 130.218 89.48 129.469 89.48V91.48ZM132.17 90.4885C132.737 89.8782 133.081 89.118 133.237 88.2589L131.269 87.9011C131.169 88.45 130.97 88.8418 130.704 89.1275L132.17 90.4885ZM133.237 88.2589C133.376 87.4942 133.445 86.7143 133.445 85.92H131.445C131.445 86.5977 131.386 87.2578 131.269 87.9011L133.237 88.2589ZM133.445 85.92V67.2H131.445V85.92H133.445ZM133.445 67.2C133.445 66.3767 133.377 65.5935 133.235 64.8529L131.271 65.2271C131.386 65.8305 131.445 66.4873 131.445 67.2H133.445ZM133.237 64.8611C133.081 64.002 132.737 63.2418 132.17 62.6315L130.704 63.9924C130.97 64.2782 131.169 64.67 131.269 65.2189L133.237 64.8611ZM132.17 62.6315C131.491 61.9005 130.513 61.64 129.469 61.64V63.64C130.218 63.64 130.551 63.8274 130.704 63.9924L132.17 62.6315ZM129.469 61.64C128.463 61.64 127.53 61.9143 126.864 62.6315L128.33 63.9924C128.496 63.8137 128.811 63.64 129.469 63.64V61.64ZM126.864 62.6315C126.298 63.2418 125.953 64.002 125.797 64.8611L127.765 65.2189C127.865 64.67 128.065 64.2782 128.33 63.9924L126.864 62.6315ZM125.799 64.8529C125.658 65.5935 125.589 66.3767 125.589 67.2H127.589C127.589 66.4873 127.649 65.8305 127.763 65.2271L125.799 64.8529ZM125.589 67.2V85.92H127.589V67.2H125.589ZM125.589 85.92C125.589 86.6996 125.64 87.4648 125.742 88.2151L127.724 87.9449C127.634 87.2872 127.589 86.6124 127.589 85.92H125.589ZM125.749 88.2589C125.902 89.1003 126.22 89.8502 126.742 90.4588L128.26 89.1572C128.014 88.8698 127.82 88.4677 127.717 87.9011L125.749 88.2589ZM126.768 90.4885C127.447 91.2194 128.426 91.48 129.469 91.48V89.48C128.721 89.48 128.387 89.2926 128.234 89.1275L126.768 90.4885ZM146.314 96L145.314 95.9827L145.297 97H146.314V96ZM146.986 57.12V56.12H146.003L145.986 57.1027L146.986 57.12ZM156.202 57.12L157.185 56.9343L157.031 56.12H156.202V57.12ZM160.474 79.728L159.492 79.9137L161.454 79.9277L160.474 79.728ZM165.082 57.12V56.12H164.265L164.102 56.9203L165.082 57.12ZM173.962 57.12L174.962 57.1027L174.945 56.12H173.962V57.12ZM174.634 96V97H175.652L175.634 95.9827L174.634 96ZM168.538 96L167.539 96.0278L167.566 97H168.538V96ZM167.818 70.128L168.818 70.1002L166.833 69.9562L167.818 70.128ZM163.306 96V97H164.147L164.291 96.1718L163.306 96ZM157.882 96L156.899 96.1811L157.049 97H157.882V96ZM153.082 69.936L154.066 69.7549L152.082 69.9139L153.082 69.936ZM152.506 96V97H153.484L153.506 96.0221L152.506 96ZM147.314 96.0173L147.986 57.1373L145.986 57.1027L145.314 95.9827L147.314 96.0173ZM146.986 58.12H156.202V56.12H146.986V58.12ZM155.22 57.3057L159.492 79.9137L161.457 79.5423L157.185 56.9343L155.22 57.3057ZM161.454 79.9277L166.062 57.3197L164.102 56.9203L159.494 79.5283L161.454 79.9277ZM165.082 58.12H173.962V56.12H165.082V58.12ZM172.962 57.1373L173.634 96.0173L175.634 95.9827L174.962 57.1027L172.962 57.1373ZM174.634 95H168.538V97H174.634V95ZM169.538 95.9722L168.818 70.1002L166.819 70.1558L167.539 96.0278L169.538 95.9722ZM166.833 69.9562L162.321 95.8282L164.291 96.1718L168.803 70.2998L166.833 69.9562ZM163.306 95H157.882V97H163.306V95ZM158.866 95.8189L154.066 69.7549L152.099 70.1171L156.899 96.1811L158.866 95.8189ZM152.082 69.9139L151.506 95.9779L153.506 96.0221L154.082 69.9581L152.082 69.9139ZM152.506 95H146.314V97H152.506V95ZM180.255 96H179.255V97H180.255V96ZM180.255 57.12V56.12H179.255V57.12H180.255ZM197.055 57.12H198.055V56.12H197.055V57.12ZM197.055 62.928V63.928H198.055V62.928H197.055ZM188.847 62.928V61.928H187.847V62.928H188.847ZM188.847 72.72H187.847V73.72H188.847V72.72ZM195.999 72.72H196.999V71.72H195.999V72.72ZM195.999 78.72V79.72H196.999V78.72H195.999ZM188.847 78.72V77.72H187.847V78.72H188.847ZM188.847 96V97H189.847V96H188.847ZM181.255 96V57.12H179.255V96H181.255ZM180.255 58.12H197.055V56.12H180.255V58.12ZM196.055 57.12V62.928H198.055V57.12H196.055ZM197.055 61.928H188.847V63.928H197.055V61.928ZM187.847 62.928V72.72H189.847V62.928H187.847ZM188.847 73.72H195.999V71.72H188.847V73.72ZM194.999 72.72V78.72H196.999V72.72H194.999ZM195.999 77.72H188.847V79.72H195.999V77.72ZM187.847 78.72V96H189.847V78.72H187.847ZM188.847 95H180.255V97H188.847V95ZM201.116 96H200.116V97H201.116V96ZM201.116 57.12V56.12H200.116V57.12H201.116ZM209.708 57.12H210.708V56.12H209.708V57.12ZM209.708 96V97H210.708V96H209.708ZM202.116 96V57.12H200.116V96H202.116ZM201.116 58.12H209.708V56.12H201.116V58.12ZM208.708 57.12V96H210.708V57.12H208.708ZM209.708 95H201.116V97H209.708V95ZM215.505 96H214.505V97H215.505V96ZM215.505 57.12V56.12H214.505V57.12H215.505ZM224.097 57.12H225.097V56.12H224.097V57.12ZM224.097 90.192H223.097V91.192H224.097V90.192ZM233.025 90.192H234.025V89.192H233.025V90.192ZM233.025 96V97H234.025V96H233.025ZM216.505 96V57.12H214.505V96H216.505ZM215.505 58.12H224.097V56.12H215.505V58.12ZM223.097 57.12V90.192H225.097V57.12H223.097ZM224.097 91.192H233.025V89.192H224.097V91.192ZM232.025 90.192V96H234.025V90.192H232.025ZM233.025 95H215.505V97H233.025V95ZM236.642 96L235.642 95.9827L235.625 97H236.642V96ZM237.314 57.12V56.12H236.331L236.314 57.1027L237.314 57.12ZM246.53 57.12L247.513 56.9343L247.359 56.12H246.53V57.12ZM250.802 79.728L249.82 79.9137L251.782 79.9277L250.802 79.728ZM255.41 57.12V56.12H254.594L254.43 56.9203L255.41 57.12ZM264.29 57.12L265.29 57.1027L265.273 56.12H264.29V57.12ZM264.962 96V97H265.98L265.962 95.9827L264.962 96ZM258.866 96L257.867 96.0278L257.894 97H258.866V96ZM258.146 70.128L259.146 70.1002L257.161 69.9562L258.146 70.128ZM253.634 96V97H254.475L254.619 96.1718L253.634 96ZM248.21 96L247.227 96.1811L247.378 97H248.21V96ZM243.41 69.936L244.394 69.7549L242.41 69.9139L243.41 69.936ZM242.834 96V97H243.812L243.834 96.0221L242.834 96ZM237.642 96.0173L238.314 57.1373L236.314 57.1027L235.642 95.9827L237.642 96.0173ZM237.314 58.12H246.53V56.12H237.314V58.12ZM245.548 57.3057L249.82 79.9137L251.785 79.5423L247.513 56.9343L245.548 57.3057ZM251.782 79.9277L256.39 57.3197L254.43 56.9203L249.822 79.5283L251.782 79.9277ZM255.41 58.12H264.29V56.12H255.41V58.12ZM263.29 57.1373L263.962 96.0173L265.962 95.9827L265.29 57.1027L263.29 57.1373ZM264.962 95H258.866V97H264.962V95ZM259.866 95.9722L259.146 70.1002L257.147 70.1558L257.867 96.0278L259.866 95.9722ZM257.161 69.9562L252.649 95.8282L254.619 96.1718L259.131 70.2998L257.161 69.9562ZM253.634 95H248.21V97H253.634V95ZM249.194 95.8189L244.394 69.7549L242.427 70.1171L247.227 96.1811L249.194 95.8189ZM242.41 69.9139L241.834 95.9779L243.834 96.0221L244.41 69.9581L242.41 69.9139ZM242.834 95H236.642V97H242.834V95ZM274.245 95.28L273.777 96.1638L273.777 96.1638L274.245 95.28ZM270.549 91.296L269.639 91.711L269.642 91.7171L270.549 91.296ZM269.157 84.24L269.008 83.2511L268.128 83.3835L268.157 84.2733L269.157 84.24ZM276.501 83.136L277.5 83.1168L277.479 81.9778L276.352 82.1471L276.501 83.136ZM276.933 87.168L275.962 87.4105L275.966 87.4247L275.97 87.4387L276.933 87.168ZM278.085 89.376L277.402 90.1071L277.414 90.118L277.426 90.1286L278.085 89.376ZM281.637 89.136L280.733 88.7079L280.724 88.7277L280.715 88.7479L281.637 89.136ZM280.917 83.184L280.092 83.7496L280.1 83.7607L280.917 83.184ZM277.797 79.824L277.14 80.5779L277.147 80.5846L277.797 79.824ZM274.437 76.896L275.094 76.142L275.083 76.1332L274.437 76.896ZM270.693 72.672L269.843 73.1989L269.849 73.2089L269.855 73.2188L270.693 72.672ZM272.133 59.232L272.795 59.9808L272.802 59.9747L272.133 59.232ZM285.093 57.648L284.601 58.519L284.611 58.5242L285.093 57.648ZM287.973 60.432L287.098 60.9176L287.107 60.9322L287.115 60.9465L287.973 60.432ZM289.317 64.032L288.332 64.2044L288.334 64.2187L288.337 64.2329L289.317 64.032ZM289.749 67.632L289.871 68.6245L290.773 68.5131L290.748 67.6042L289.749 67.632ZM282.357 68.544L281.357 68.5718L281.388 69.6711L282.479 69.5365L282.357 68.544ZM282.117 65.568L281.123 65.6784L281.125 65.6993L281.128 65.7201L282.117 65.568ZM281.445 63.6L280.638 64.1914L280.648 64.2048L280.658 64.2178L281.445 63.6ZM278.037 63.888L277.168 63.3919L277.159 63.4078L277.151 63.424L278.037 63.888ZM278.517 69.456L277.707 70.0425L277.718 70.0584L277.73 70.0738L278.517 69.456ZM281.253 72.288L280.59 73.0366L280.592 73.0385L281.253 72.288ZM284.469 75.12L283.808 75.8705L283.815 75.8765L283.821 75.8823L284.469 75.12ZM288.741 80.016L287.895 80.55L287.902 80.5605L288.741 80.016ZM289.269 91.776L290.139 92.2681L290.144 92.2601L289.269 91.776ZM285.717 95.28L285.226 94.4084L285.219 94.4129L285.717 95.28ZM280.341 95.576C278.022 95.576 276.162 95.1636 274.713 94.3962L273.777 96.1638C275.591 97.1244 277.795 97.576 280.341 97.576V95.576ZM274.713 94.3962C273.287 93.6417 272.203 92.4836 271.456 90.8749L269.642 91.7171C270.559 93.6924 271.938 95.1903 273.777 96.1638L274.713 94.3962ZM271.458 90.881C270.7 89.2174 270.249 87.0079 270.156 84.2067L268.157 84.2733C268.256 87.2321 268.734 89.7266 269.639 91.711L271.458 90.881ZM269.305 85.2289L276.649 84.1249L276.352 82.1471L269.008 83.2511L269.305 85.2289ZM275.501 83.1552C275.534 84.8567 275.681 86.2841 275.962 87.4105L277.903 86.9255C277.672 86.0039 277.532 84.7433 277.5 83.1168L275.501 83.1552ZM275.97 87.4387C276.28 88.5405 276.73 89.4791 277.402 90.1071L278.767 88.6449C278.48 88.3769 278.161 87.8435 277.895 86.8973L275.97 87.4387ZM277.426 90.1286C278.127 90.7421 278.972 91.048 279.909 91.048V89.048C279.438 89.048 279.066 88.9059 278.743 88.6234L277.426 90.1286ZM279.909 91.048C280.461 91.048 281.004 90.9554 281.479 90.7044C281.975 90.443 282.342 90.0381 282.558 89.5241L280.715 88.7479C280.675 88.8419 280.627 88.893 280.546 88.9356C280.446 88.9886 280.252 89.048 279.909 89.048V91.048ZM282.54 89.5641C282.892 88.8224 283.069 88.0362 283.069 87.216H281.069C281.069 87.7398 280.958 88.2336 280.733 88.7079L282.54 89.5641ZM283.069 87.216C283.069 85.4519 282.643 83.8957 281.734 82.6073L280.1 83.7607C280.726 84.6483 281.069 85.7801 281.069 87.216H283.069ZM281.741 82.6185C280.912 81.4096 279.808 80.2259 278.446 79.0634L277.147 80.5846C278.41 81.6621 279.385 82.7184 280.092 83.7495L281.741 82.6185ZM278.454 79.0701L275.094 76.1421L273.78 77.6499L277.14 80.5779L278.454 79.0701ZM275.083 76.1332C273.683 74.9457 272.5 73.61 271.53 72.1252L269.855 73.2188C270.934 74.87 272.247 76.3503 273.79 77.6588L275.083 76.1332ZM271.543 72.1451C270.67 70.7374 270.205 68.9625 270.205 66.768H268.205C268.205 69.2455 268.731 71.4066 269.843 73.1989L271.543 72.1451ZM270.205 66.768C270.205 63.6771 271.112 61.4711 272.795 59.9808L271.47 58.4832C269.249 60.4489 268.205 63.2669 268.205 66.768H270.205ZM272.802 59.9747C274.524 58.4224 276.917 57.592 280.101 57.592V55.592C276.564 55.592 273.645 56.5216 271.463 58.4893L272.802 59.9747ZM280.101 57.592C282.081 57.592 283.556 57.9293 284.601 58.519L285.584 56.777C284.133 55.9587 282.28 55.592 280.101 55.592V57.592ZM284.611 58.5242C285.744 59.1477 286.56 59.9477 287.098 60.9176L288.847 59.9464C288.106 58.6123 287.001 57.5563 285.575 56.7718L284.611 58.5242ZM287.115 60.9465C287.724 61.9618 288.129 63.0459 288.332 64.2044L290.302 63.8596C290.056 62.4581 289.565 61.1422 288.83 59.9175L287.115 60.9465ZM288.337 64.2329C288.583 65.4298 288.719 66.5717 288.749 67.6598L290.748 67.6042C290.714 66.3883 290.563 65.1302 290.296 63.8311L288.337 64.2329ZM289.626 66.6395L282.234 67.5515L282.479 69.5365L289.871 68.6245L289.626 66.6395ZM283.356 68.5162C283.323 67.3366 283.241 66.301 283.105 65.4159L281.128 65.7201C281.248 66.499 281.326 67.4474 281.357 68.5718L283.356 68.5162ZM283.111 65.4576C283.004 64.4985 282.744 63.6345 282.231 62.9822L280.658 64.2178C280.85 64.4615 281.037 64.9095 281.123 65.6784L283.111 65.4576ZM282.251 63.0086C281.666 62.2107 280.783 61.88 279.813 61.88V63.88C280.314 63.88 280.519 64.0293 280.638 64.1914L282.251 63.0086ZM279.813 61.88C278.669 61.88 277.738 62.3955 277.168 63.3919L278.905 64.3841C279.104 64.0364 279.357 63.88 279.813 63.88V61.88ZM277.151 63.424C276.734 64.2205 276.509 65.0505 276.509 65.904H278.509C278.509 65.4135 278.636 64.8995 278.922 64.352L277.151 63.424ZM276.509 65.904C276.509 67.5001 276.883 68.9044 277.707 70.0425L279.327 68.8695C278.807 68.1515 278.509 67.1879 278.509 65.904H276.509ZM277.73 70.0738C278.481 71.029 279.438 72.0164 280.59 73.0366L281.916 71.5394C280.828 70.5756 279.96 69.675 279.303 68.8382L277.73 70.0738ZM280.592 73.0385L283.808 75.8705L285.13 74.3695L281.914 71.5375L280.592 73.0385ZM283.821 75.8823C285.443 77.2588 286.799 78.8144 287.895 80.55L289.586 79.482C288.378 77.5696 286.887 75.8612 285.116 74.3577L283.821 75.8823ZM287.902 80.5605C288.958 82.1878 289.517 84.2435 289.517 86.784H291.517C291.517 83.9485 290.891 81.4922 289.579 79.4715L287.902 80.5605ZM289.517 86.784C289.517 88.4494 289.139 89.9452 288.394 91.2919L290.144 92.2601C291.063 90.5988 291.517 88.7666 291.517 86.784H289.517ZM288.398 91.2839C287.66 92.5902 286.61 93.6299 285.226 94.4084L286.207 96.1516C287.895 95.2021 289.214 93.9058 290.139 92.2681L288.398 91.2839ZM285.219 94.4129C283.894 95.174 282.281 95.576 280.341 95.576V97.576C282.561 97.576 284.532 97.114 286.215 96.1471L285.219 94.4129Z" fill="black"/>
</g>
<g filter="url(#filter1_d_10_10)">
<path d="M227.423 29.5238C232.047 30.4239 234.466 32.1243 236.633 36.071C237.596 37.8263 237.955 39.8406 237.955 41.8433V51.9255C239.12 85.75 188.425 73.3088 162.932 62.8601C161.098 62.172 157.534 56.9371 157.14 41.6372C157.092 39.7698 157.413 37.885 158.273 36.2271C160.721 31.5073 163.76 29.8821 170.215 29.3272H225.161C225.92 29.3272 226.679 29.3789 227.423 29.5238Z" fill="#A71D24" fill-opacity="0.5"/>
<path d="M67.8486 29.5238C63.2245 30.4239 60.8057 32.1243 58.639 36.071C57.6754 37.8263 57.317 39.8406 57.317 41.8433V51.9255C56.1516 85.75 106.847 73.3088 132.34 62.8601C134.173 62.172 137.738 56.9371 138.131 41.6372C138.179 39.7698 137.859 37.885 136.999 36.2271C134.55 31.5073 131.512 29.8821 125.056 29.3272H70.1101C69.3519 29.3272 68.5929 29.3789 67.8486 29.5238Z" fill="#A71D24" fill-opacity="0.5"/>
<path d="M126.875 26.7028C132.051 27.0486 134.684 25.8599 138.895 22.3025C125.542 17.6857 95.047 8.01462 82.8102 6.26508C73.2333 4.89582 63.6266 9.09313 57.6914 12.8463C55.4968 14.234 55.4655 17.2776 57.4365 18.9685C58.2945 19.7045 59.411 20.0778 60.5394 20.0174C86.1488 18.6484 100.862 20.3199 126.158 26.5883C126.391 26.6462 126.635 26.6867 126.875 26.7028Z" fill="#B0435D"/>
<path d="M169.125 26.7028C163.949 27.0486 161.316 25.8599 157.105 22.3025C170.458 17.6857 200.953 8.01462 213.19 6.26508C222.767 4.89582 232.373 9.09313 238.309 12.8463C240.503 14.234 240.534 17.2776 238.563 18.9685C237.705 19.7045 236.589 20.0778 235.461 20.0174C209.851 18.6484 195.138 20.3199 169.842 26.5883C169.609 26.6462 169.365 26.6867 169.125 26.7028Z" fill="#B0435D"/>
<path d="M138.167 40.9908C145.35 37.5758 149.488 37.4414 157.105 40.9908M236.633 36.071C234.466 32.1243 232.047 30.4239 227.423 29.5238C226.679 29.3789 225.92 29.3272 225.161 29.3272H170.215C163.76 29.8821 160.721 31.5073 158.273 36.2271C157.413 37.885 157.092 39.7698 157.14 41.6372C157.534 56.9371 161.098 62.172 162.932 62.8601C188.425 73.3088 239.12 85.75 237.955 51.9255V41.8433C237.955 39.8406 237.596 37.8263 236.633 36.071ZM58.639 36.071C60.8057 32.1243 63.2245 30.4239 67.8486 29.5238C68.5929 29.3789 69.3519 29.3272 70.1101 29.3272H125.056C131.512 29.8821 134.55 31.5073 136.999 36.2271C137.859 37.885 138.179 39.7698 138.131 41.6372C137.738 56.9371 134.173 62.172 132.34 62.8601C106.847 73.3088 56.1516 85.75 57.317 51.9255V41.8433C57.317 39.8406 57.6754 37.8263 58.639 36.071ZM138.895 22.3025C134.684 25.8599 132.051 27.0486 126.875 26.7028C126.635 26.6867 126.391 26.6462 126.158 26.5883C100.862 20.3199 86.1488 18.6484 60.5394 20.0174C59.411 20.0778 58.2945 19.7045 57.4365 18.9685C55.4655 17.2776 55.4968 14.234 57.6914 12.8463C63.6266 9.09313 73.2333 4.89582 82.8102 6.26508C95.047 8.01462 125.542 17.6857 138.895 22.3025ZM157.105 22.3025C161.316 25.8599 163.949 27.0486 169.125 26.7028C169.365 26.6867 169.609 26.6462 169.842 26.5883C195.138 20.3199 209.851 18.6484 235.461 20.0174C236.589 20.0778 237.705 19.7045 238.563 18.9685C240.534 17.2776 240.503 14.234 238.309 12.8463C232.373 9.09313 222.767 4.89582 213.19 6.26508C200.953 8.01462 170.458 17.6857 157.105 22.3025Z" stroke="#B0435D" stroke-width="1.5"/>
</g>
</g>
<defs>
<filter id="filter0_d_10_10" x="-1.91687" y="51.592" width="302.434" height="59.984" filterUnits="userSpaceOnUse" color-interpolation-filters="sRGB">
<feFlood flood-opacity="0" result="BackgroundImageFix"/>
<feColorMatrix in="SourceAlpha" type="matrix" values="0 0 0 0 0 0 0 0 0 0 0 0 0 0 0 0 0 0 127 0" result="hardAlpha"/>
<feOffset dy="5"/>
<feGaussianBlur stdDeviation="5"/>
<feComposite in2="hardAlpha" operator="out"/>
<feColorMatrix type="matrix" values="0 0 0 0 0 0 0 0 0 0 0 0 0 0 0 0 0 0 0.25 0"/>
<feBlend mode="normal" in2="BackgroundImageFix" result="effect1_dropShadow_10_10"/>
<feBlend mode="normal" in="SourceGraphic" in2="effect1_dropShadow_10_10" result="shape"/>
</filter>
<filter id="filter1_d_10_10" x="45.2504" y="-0.750076" width="205.499" height="89.5001" filterUnits="userSpaceOnUse" color-interpolation-filters="sRGB">
<feFlood flood-opacity="0" result="BackgroundImageFix"/>
<feColorMatrix in="SourceAlpha" type="matrix" values="0 0 0 0 0 0 0 0 0 0 0 0 0 0 0 0 0 0 127 0" result="hardAlpha"/>
<feOffset dy="4"/>
<feGaussianBlur stdDeviation="5"/>
<feComposite in2="hardAlpha" operator="out"/>
<feColorMatrix type="matrix" values="0 0 0 0 0 0 0 0 0 0 0 0 0 0 0 0 0 0 0.25 0"/>
<feBlend mode="normal" in2="BackgroundImageFix" result="effect1_dropShadow_10_10"/>
<feBlend mode="normal" in="SourceGraphic" in2="effect1_dropShadow_10_10" result="shape"/>
</filter>
<clipPath id="clip0_10_10">
<rect width="299" height="105" fill="white"/>
</clipPath>
</defs>
</svg>
